<svg width="32" height="32" viewBox="0 0 32 32" fill="none" xmlns="http://www.w3.org/2000/svg">
<path d="M10.6666 18.6667H13.3333V16C13.3333 15.6222 13.4613 15.3053 13.7173 15.0493C13.9733 14.7933 14.2897 14.6658 14.6666 14.6667H17.3333V17.3333L21.3333 13.3333L17.3333 9.33334V12H14.6666C13.5555 12 12.611 12.3889 11.8333 13.1667C11.0555 13.9444 10.6666 14.8889 10.6666 16V18.6667ZM2.66659 28C2.28881 28 1.97192 27.872 1.71592 27.616C1.45992 27.36 1.33237 27.0436 1.33326 26.6667C1.33326 26.2889 1.46126 25.972 1.71726 25.716C1.97326 25.46 2.2897 25.3324 2.66659 25.3333H29.3333C29.711 25.3333 30.0279 25.4613 30.2839 25.7173C30.5399 25.9733 30.6675 26.2898 30.6666 26.6667C30.6666 27.0444 30.5386 27.3613 30.2826 27.6173C30.0266 27.8733 29.7101 28.0009 29.3333 28H2.66659ZM5.33326 24C4.59992 24 3.97192 23.7387 3.44926 23.216C2.92659 22.6933 2.6657 22.0658 2.66659 21.3333V6.66667C2.66659 5.93334 2.92792 5.30534 3.45059 4.78267C3.97326 4.26 4.60081 3.99911 5.33326 4H26.6666C27.3999 4 28.0279 4.26134 28.5506 4.784C29.0733 5.30667 29.3341 5.93422 29.3333 6.66667V21.3333C29.3333 22.0667 29.0719 22.6947 28.5493 23.2173C28.0266 23.74 27.399 24.0009 26.6666 24H5.33326ZM5.33326 21.3333H26.6666V6.66667H5.33326V21.3333Z" fill="#DDDDDD"/>
</svg>
